<?xml version="1.0" encoding="UTF-8"?>
<svg width="1374px" height="319px" viewBox="0 0 1374 319" version="1.1" xmlns="http://www.w3.org/2000/svg" xmlns:xlink="http://www.w3.org/1999/xlink">
    <!-- Generator: Sketch 55.2 (78181) - https://sketchapp.com -->
    <title>ts-logo</title>
    <desc>Created with Sketch.</desc>
    <g id="Page-1" stroke="none" stroke-width="1" fill="none" fill-rule="evenodd">
        <g id="ts-logo" transform="translate(0.000000, -1.000000)" fill-rule="nonzero">
            <path d="M61.06,240.37 C67.06,240.37 71.3666667,238.216667 73.98,233.91 L93.68,255.23 C89.8259839,259.668156 84.9486656,263.100471 79.47,265.23 C74.0473231,267.511639 68.2328033,268.717337 62.35,268.78 C47.49,268.78 36.3966667,264.633333 29.07,256.34 C21.7433333,248.046667 18.0833333,235.933333 18.09,220 L18.09,92.1 L0,92.1 L0,66.9 L18.09,66.9 L18.09,31 L46.52,21.31 L46.52,66.9 L84,66.9 L84,92.1 L46.52,92.1 L46.52,220 C46.52,233.586667 51.3666667,240.376667 61.06,240.37 Z M158.61,64.31 C166.15,64.31 171.75,66.1433333 175.41,69.81 L165.72,95.33 C164.21,93.61 161.3,92.74 156.99,92.74 C152.036667,92.74 147.623333,94.84 143.75,99.04 C139.876667,103.24 137.94,108.573333 137.94,115.04 L137.94,264.28 L109.51,264.28 L109.51,66.9 L128.24,66.9 L134.7,79.5 C136.837152,75.5608779 139.752874,72.0973949 143.27,69.32 C147.25,65.9933333 152.363333,64.3233333 158.61,64.31 Z M284,264.28 L265.21,264.28 L258.75,254.91 C256.81,257.71 253.633333,260.71 249.22,263.91 C244.806667,267.11 237.97,268.726667 228.71,268.76 C215.79,268.76 205.613333,264.236667 198.18,255.19 C190.746667,246.143333 187.02,233.236667 187,216.47 L187,66.9 L215.42,66.9 L215.42,219.7 C215.42,226.366667 217.306667,231.48 221.08,235.04 C224.853333,238.6 229.643333,240.376667 235.45,240.37 C240.645432,240.520526 245.712095,238.738999 249.67,235.37 C253.543333,232.036667 255.48,226.813333 255.48,219.7 L255.48,66.9 L284,66.9 L284,264.28 Z M404.120767,214.53 C404.15305,221.431122 403.117451,228.295759 401.05,234.88 C399.082683,241.195613 395.899653,247.065705 391.68,252.16 C387.362834,257.319144 381.956745,261.458234 375.85,264.28 C369.496667,267.293333 361.906667,268.8 353.08,268.8 C346.249773,268.880462 339.465292,267.676217 333.08,265.25 C327.236347,263.006317 321.906346,259.604912 317.41,255.25 C312.945885,250.87391 309.47716,245.58726 307.24,239.75 C304.801795,233.36774 303.593861,226.581593 303.68,219.75 L303.68,206.13 L332.11,212.27 L332.11,219.7 C332.11,225.953333 334.05,230.953333 337.93,234.7 C341.81,238.446667 346.87,240.33 353.11,240.35 C367.776667,240.35 375.11,233.46 375.11,219.68 C375.221707,215.240795 374.565382,210.815677 373.17,206.6 C371.870808,203.044663 370.017958,199.716958 367.68,196.74 C364.282681,192.918874 360.605874,189.355713 356.68,186.08 C352.806667,182.853333 348.876667,179.623333 344.89,176.39 C340.903333,173.156667 336.973333,169.823333 333.1,166.39 C329.164704,162.890915 325.488392,159.110998 322.1,155.08 C317.346172,149.456469 313.47832,143.140439 310.63,136.35 C307.590451,128.752309 306.1078,120.621531 306.27,112.44 C306.19046,105.756126 307.395631,99.1191997 309.82,92.89 C312.041699,87.1794329 315.45013,82.005435 319.82,77.71 C324.22853,73.440613 329.443323,70.0921306 335.16,67.86 C341.38506,65.4322759 348.018728,64.2236855 354.7,64.3 C369.56,64.3 380.976667,68.7166667 388.95,77.55 C396.923333,86.3833333 400.906667,97.9066667 400.9,112.12 L400.9,125.68 L373.12,119.22 L373.12,112.12 C373.12,105.66 371.343333,100.543333 367.79,96.77 C364.236667,92.9966667 359.55,91.1133333 353.73,91.12 C347.73,91.12 343.046667,93.0566667 339.68,96.93 C336.313333,100.803333 334.646667,106.08 334.68,112.76 C334.630135,120.160651 337.142215,127.350641 341.79,133.11 C346.881703,139.499656 352.618709,145.347247 358.91,150.56 C365.576667,156.16 372.416667,161.92 379.43,167.84 C386.201618,173.510817 392.033674,180.217006 396.71,187.71 C399.124791,191.687173 400.972619,195.981943 402.2,200.47 C403.477509,205.047319 404.123485,209.777752 404.120767,214.53 Z M477.13,240.37 C483.13,240.37 487.436667,238.216667 490.05,233.91 L509.75,255.23 C505.895984,259.668156 501.018666,263.100471 495.54,265.23 C490.117627,267.512616 484.302913,268.718354 478.42,268.78 C463.56,268.78 452.47,264.633333 445.15,256.34 C437.83,248.046667 434.163333,235.933333 434.15,220 L434.15,92.1 L416.07,92.1 L416.07,66.9 L434.16,66.9 L434.16,31 L462.59,21.31 L462.59,66.9 L500.06,66.9 L500.06,92.1 L462.59,92.1 L462.59,220 C462.59,233.586667 467.436667,240.376667 477.13,240.37 Z M554,18.44 C553.923295,22.9586784 552.456831,27.3441026 549.8,31 C547.435155,34.3391715 543.56033,36.2784595 539.47,36.17 C535.296572,36.2404783 531.338634,34.3209157 528.81,31 C525.964207,27.4287299 524.476128,22.9644917 524.61,18.4 C524.565041,13.9987043 526.049565,9.71832694 528.81,6.29 C531.300268,2.90831678 535.27079,0.937954865 539.47,1 C543.612568,0.905345628 547.541604,2.8344165 550,6.17 C552.69888,9.68137269 554.11087,14.0126532 554,18.44 Z M553,264.28 L524.61,264.28 L524.61,66.9 L553,66.9 L553,264.28 Z M675.47,264.28 L647,264.28 L647,112.13 C647,105.236667 644.74,100.013333 640.22,96.46 C631.162617,89.3587717 618.427383,89.3587717 609.37,96.46 C604.703333,100.013333 602.386667,105.236667 602.42,112.13 L602.42,264.28 L574,264.28 L574,66.9 L592.74,66.9 L599.2,76.27 C602.516547,72.5451103 606.590875,69.5720445 611.15,67.55 C615.89,65.4033333 622.243333,64.3233333 630.21,64.31 C643.776667,64.31 654.706667,68.5666667 663,77.08 C671.293333,85.5933333 675.44,96.9533333 675.44,111.16 L675.47,264.28 Z M799.84,90.8 L799.84,168.34 C799.84,181.9 796.286667,192.666667 789.18,200.64 C782.073333,208.613333 770.346667,213.35 754,214.85 C746.446667,215.516667 741.6,217.24 739.46,220.02 C737.428256,222.477793 736.289636,225.551713 736.23,228.74 C736.349856,231.093519 737.073022,233.376655 738.33,235.37 C739.781473,237.880134 742.378645,239.511787 745.27,239.73 L806.97,239.73 L791.15,268.16 L733.29,268.16 C721.87,268.16 716.163333,272.033333 716.17,279.78 C716.17,283.873333 717.623333,286.836667 720.53,288.67 C723.803568,290.591618 727.556394,291.541964 731.35,291.41 L783.35,291.41 L767.85,319.52 L730.71,319.52 C717.136667,319.52 706.69,315.966667 699.37,308.86 C692.05,301.753333 688.383333,292.17 688.37,280.11 C688.37,270.423333 691.223333,262.24 696.93,255.56 C702.636667,248.88 710.66,244.246667 721,241.66 C717.906825,240.859149 715.243962,238.89157 713.57,236.17 C712.046257,233.519438 711.265512,230.507008 711.31,227.45 C711.31,224.443333 712.546667,221.376667 715.02,218.25 C717.493333,215.123333 721.53,212.913333 727.13,211.62 C709.896667,202.786667 701.283333,188.36 701.29,168.34 L701.29,112.13 C701.29,97.27 705.543333,85.6033333 714.05,77.13 C722.556667,68.6566667 734.14,64.3833333 748.8,64.31 C755.075316,64.2078271 761.346316,64.6966504 767.53,65.77 C772.483333,66.7366667 776.15,67.8666667 778.53,69.16 L813.74,69.16 L799.84,90.8 Z M771.730015,111.48 C771.730015,104.146667 769.576667,98.8133333 765.27,95.48 C756.430132,88.7997269 744.229868,88.7997269 735.39,95.48 C731.19,98.8133333 729.09,104.146667 729.09,111.48 L729.09,169 C729.09,175.9 731.19,181.07 735.39,184.51 C744.1571,191.403849 756.5029,191.403849 765.27,184.51 C769.583333,181.056667 771.736667,175.886667 771.730015,169 L771.730015,111.48 Z" id="Combined-Shape" fill="#0175EF"></path>
            <path d="M926.150745,214.53 C926.178087,221.430761 925.142603,228.294641 923.08,234.88 C921.112683,241.195613 917.929653,247.065705 913.71,252.16 C909.392834,257.319144 903.986745,261.458234 897.88,264.28 C891.533333,267.293333 883.943333,268.8 875.11,268.8 C868.279773,268.880462 861.495292,267.676217 855.11,265.25 C849.266347,263.006317 843.936346,259.604912 839.44,255.25 C834.975885,250.87391 831.50716,245.58726 829.27,239.75 C826.831795,233.36774 825.623861,226.581593 825.71,219.75 L825.71,206.13 L854.14,212.27 L854.14,219.7 C854.14,225.953333 856.08,230.953333 859.96,234.7 C863.84,238.446667 868.9,240.33 875.14,240.35 C889.806667,240.35 897.14,233.46 897.14,219.68 C897.254528,215.2414 896.601598,210.816366 895.21,206.6 C893.911117,203.042476 892.054585,199.714221 889.71,196.74 C886.315458,192.916215 882.638444,189.352854 878.71,186.08 C874.843333,182.853333 870.913333,179.623333 866.92,176.39 C862.926667,173.156667 858.996667,169.823333 855.13,166.39 C851.194704,162.890915 847.518392,159.110998 844.13,155.08 C839.376172,149.456469 835.50832,143.140439 832.66,136.35 C829.620451,128.752309 828.1378,120.621531 828.3,112.44 C828.22046,105.756126 829.425631,99.1191997 831.85,92.89 C834.071699,87.1794329 837.48013,82.005435 841.85,77.71 C846.25853,73.440613 851.473323,70.0921306 857.19,67.86 C863.41506,65.4322759 870.048728,64.2236855 876.73,64.3 C891.576667,64.3066667 903,68.7266667 911,77.56 C919,86.3933333 922.983333,97.9166667 922.95,112.13 L922.95,125.69 L895.17,119.23 L895.17,112.13 C895.17,105.67 893.393333,100.553333 889.84,96.78 C886.286667,93.0066667 881.6,91.1233333 875.78,91.13 C869.78,91.13 865.113333,93.0666667 861.78,96.94 C858.446667,100.813333 856.78,106.09 856.78,112.77 C856.730135,120.170651 859.242215,127.360641 863.89,133.12 C868.979026,139.512023 874.716291,145.359878 881.01,150.57 C887.676667,156.17 894.516667,161.93 901.53,167.85 C908.301618,173.520817 914.133674,180.227006 918.81,187.72 C921.224791,191.697173 923.072619,195.991943 924.3,200.48 C925.552962,205.057365 926.175371,209.784314 926.150745,214.53 Z M1042.12,219.7 C1042.21442,226.72762 1040.89495,233.702495 1038.24,240.21 C1035.83607,246.082489 1032.20105,251.371339 1027.58,255.72 C1023.03354,259.934384 1017.71161,263.225351 1011.91,265.41 C1005.86859,267.69261 999.458111,268.841818 993,268.801507 C986.388335,268.849042 979.822423,267.700516 973.62,265.41 C967.810043,263.272771 962.49561,259.975917 958,255.72 C953.470876,251.359744 949.942881,246.067752 947.66,240.21 C945.106852,233.677795 943.843571,226.712772 943.94,219.7 L943.94,112.13 C943.841761,105.3248 945.106604,98.5687693 947.66,92.26 C952.357227,80.6589589 961.835135,71.6513003 973.66,67.55 C979.872549,65.3665276 986.415035,64.2704752 993,64.308968 C999.441221,64.2737042 1005.83865,65.3704054 1011.9,67.55 C1017.71377,69.6348921 1023.04448,72.8768626 1027.57,77.08 C1032.13896,81.3448019 1035.76941,86.514615 1038.23,92.26 C1040.88512,98.5432556 1042.20635,105.309466 1042.11,112.13 L1042.12,219.7 Z M1013.69,112.13 C1013.69,105.236667 1011.64333,100.013333 1007.55,96.46 C999.102897,89.352369 986.767103,89.352369 978.32,96.46 C974.32,100.013333 972.32,105.236667 972.32,112.13 L972.32,219.7 C972.32,226.366667 974.32,231.48 978.32,235.04 C986.767103,242.147631 999.102897,242.147631 1007.55,235.04 C1011.63667,231.493333 1013.68333,226.38 1013.69,219.7 L1013.69,112.13 Z M1110.92,91.13 C1105.52116,90.9768061 1100.26605,92.8822284 1096.22,96.46 C1092.22,100.013333 1090.22,105.236667 1090.22,112.13 L1090.22,219.7 C1090.22,226.366667 1092.22,231.48 1096.22,235.04 C1100.26605,238.617772 1105.52116,240.523194 1110.92,240.37 C1116.23446,240.474346 1121.40441,238.636065 1125.46,235.2 C1129.54667,231.76 1131.59,226.593333 1131.59,219.7 L1131.59,216.47 L1160,207.1 L1160,219.7 C1160,228.1 1158.71,235.366667 1156.13,241.5 C1153.77557,247.306756 1150.13013,252.501333 1145.47,256.69 C1140.88743,260.688601 1135.56301,263.74666 1129.8,265.69 C1117.36799,269.837715 1103.9169,269.781493 1091.52,265.53 C1079.63495,261.438563 1070.13516,252.351648 1065.52,240.66 C1062.91946,233.970394 1061.65563,226.835848 1061.8,219.66 L1061.8,112.13 C1061.8,103.296667 1063.04,95.8666667 1065.52,89.84 C1067.73117,84.1806248 1071.27469,79.1380442 1075.85,75.14 C1080.41593,71.2923681 1085.7622,68.4810523 1091.52,66.9 C1097.828,65.139045 1104.35095,64.2672991 1110.9,64.3085042 C1117.29081,64.2747883 1123.65427,65.1468179 1129.8,66.9 C1135.56562,68.543014 1140.91001,71.4079048 1145.47,75.3 C1150.12319,79.3636752 1153.77188,84.4499323 1156.13,90.16 C1158.71,96.16 1160,103.493333 1160,112.16 L1160,120.55 L1131.57,120.55 L1131.57,112.16 C1131.57,105.266667 1129.52667,100.043333 1125.44,96.49 C1121.43725,92.9560115 1116.25889,91.0444424 1110.92,91.13 Z M1207.83,18.44 C1207.76149,22.9723915 1206.29463,27.3729821 1203.63,31.04 C1201.26515,34.3791715 1197.39033,36.3184595 1193.3,36.21 C1189.11914,36.272664 1185.15917,34.3372544 1182.64,31 C1179.78752,27.4317919 1178.29547,22.9662492 1178.43,18.4 C1178.38787,13.9974797 1179.87597,9.71696981 1182.64,6.29 C1185.13027,2.90831678 1189.10079,0.937954865 1193.3,1 C1197.42969,0.913376873 1201.34314,2.84212199 1203.79,6.17 C1206.50245,9.67645851 1207.92864,14.0079683 1207.83,18.44 Z M1206.83,264.28 L1178.4,264.28 L1178.4,66.9 L1206.83,66.9 L1206.83,264.28 Z M1323.8,264.28 L1305.06,264.28 L1298.6,253 C1295.94818,257.59696 1292.16062,261.436167 1287.6,264.15 C1282.64,267.27 1276.07,268.83 1267.89,268.83 C1262.58997,268.804269 1257.33846,267.818342 1252.39,265.92 C1247.13277,263.925749 1242.38727,260.782583 1238.5,256.72 C1234.15315,252.117524 1230.79724,246.671822 1228.64,240.72 C1226.21333,234.24 1225,226.373333 1225,217.12 C1224.84631,208.399858 1226.15787,199.715802 1228.88,191.43 C1231.27102,184.372993 1234.63693,177.684925 1238.88,171.56 C1242.89983,165.8291 1247.55992,160.575175 1252.77,155.9 C1257.72622,151.443483 1262.90272,147.238207 1268.28,143.3 C1273.45333,139.526667 1278.40667,135.92 1283.14,132.48 C1287.55344,129.317027 1291.66133,125.748148 1295.41,121.82 L1295.41,112.13 C1295.41,105.883333 1294.07667,100.82 1291.41,96.94 C1288.74333,93.06 1284.48667,91.1233333 1278.64,91.13 C1267.66,91.13 1260.66,95.5433333 1257.64,104.37 L1233.73,88.87 C1235.88853,85.632415 1238.20811,82.5051516 1240.68,79.5 C1243.23897,76.3974452 1246.27727,73.7237363 1249.68,71.58 C1253.53784,69.1932499 1257.73086,67.3967232 1262.12,66.25 C1267.61036,64.8675445 1273.25906,64.2152532 1278.92,64.31 C1292.49333,64.31 1303.37,68.5133333 1311.55,76.92 C1319.73,85.3266667 1323.82,97.0633333 1323.82,112.13 L1323.8,264.28 Z M1296,158.64 C1292.34,161.02 1288.03333,163.876667 1283.08,167.21 C1277.94553,170.698836 1273.18081,174.702945 1268.86,179.16 C1264.32199,183.814612 1260.46392,189.086647 1257.4,194.82 C1254.21001,200.893295 1252.59729,207.670826 1252.71,214.53 C1252.71,222.716667 1254.54,229.07 1258.2,233.59 C1261.86,238.11 1267.13667,240.37 1274.03,240.37 C1281.57,240.37 1287.11667,237.786667 1290.67,232.62 C1294.27138,227.284741 1296.13323,220.965617 1296,214.53 L1296,158.64 Z M1373.23,264.28 L1344.8,264.28 L1344.8,10.37 L1373.23,1 L1373.23,264.28 Z" id="Combined-Shape" fill="#212121"></path>
        </g>
    </g>
</svg>